# xmcd
#
# Track frame offsets:
#	150
#	13060
#	29456
#	44132
#	61015
#	76680
#	96351
#	109969
#	128036
#	144203
#	158006
#	179114
#	197157
#	214196
#	225281
#	240605
#	258003
#	272680
#	293707
#	309650
#
# Disc length: 4361 seconds
#
# Revision: 1
# Processed by: cddbd v1.5.2PL0 Copyright (c) Steve Scherf et al.
# Submitted via: dBpowerAMP V4.0
#
DISCID=15110714
DTITLE=Various Artist - Hott Urban Volume 40 Canada
DYEAR=2018
DGENRE=Urban
TTITLE0=Quavo - W o r k I n m E
TTITLE1=Ella Mai - Trip
TTITLE2=Nicki Minaj - Barbie Dreams
TTITLE3=Travis Scott - Sicko Mode
TTITLE4=Lil Donald - Do Better
TTITLE5=DJ Khaled ft. Justin Bieber, Chance The Rapper and Quavo - No Brainer
TTITLE6=6ix9ine ft. Nicki Minaj - Fefe
TTITLE7=Drake - Nonstop
TTITLE8=Lil Duval ft. Snoop Dogg and Ball Greezy - Smile (Best Life)
TTITLE9=Tory Lanez and Rich The Kid - Talk To Me
TTITLE10=Shy Glizzy ft. Tory Lanez and Gunna - Do You Understand
TTITLE11=Fat Joe ft. Chris Brown and Dre - Attention
TTITLE12=Wiz Khalifa ft. Swae Lee - Hopeless Romantic
TTITLE13=Kanye West - All Mine
TTITLE14=John Legend ft. Bloodpop - A Good Night
TTITLE15=Post Malone - Better Now
TTITLE16=Dreezy - Where Them $ @
TTITLE17=Zaytoven ft. Future - Mo Reala
TTITLE18=Vivian Green - Vibes
TTITLE19=Jhene Aiko ft. YG - Never Call Me
EXTD=
EXTT0=
EXTT1=
EXTT2=
EXTT3=
EXTT4=
EXTT5=
EXTT6=
EXTT7=
EXTT8=
EXTT9=
EXTT10=
EXTT11=
EXTT12=
EXTT13=
EXTT14=
EXTT15=
EXTT16=
EXTT17=
EXTT18=
EXTT19=
PLAYORDER=
